<svg width="12" height="16" viewBox="0 0 12 16" fill="none" xmlns="http://www.w3.org/2000/svg">
<path fill-rule="evenodd" clip-rule="evenodd" d="M11.9458 6.67242C12.1796 5.10711 10.9878 4.26564 9.3582 3.70429L9.88683 1.58388L8.59576 1.26222L8.0811 3.32675C7.74216 3.2422 7.39366 3.16242 7.04736 3.08339L7.5657 1.00526L6.27574 0.683594L5.74674 2.80326C5.46588 2.7393 5.19017 2.67607 4.92255 2.60953L4.92402 2.60291L3.14402 2.15847L2.80067 3.53702C2.80067 3.53702 3.75831 3.75649 3.73809 3.77009C4.26084 3.9006 4.35568 4.24652 4.33951 4.52076L3.73736 6.93636C3.77338 6.94556 3.82007 6.95879 3.87154 6.97938L3.73552 6.94556L2.8911 10.3295C2.82714 10.4883 2.66502 10.7265 2.29961 10.636C2.31248 10.6548 1.36146 10.4019 1.36146 10.4019L0.720703 11.8797L2.40071 12.2984C2.59035 12.3459 2.77769 12.3948 2.96298 12.4431C3.08299 12.4745 3.20213 12.5055 3.32048 12.5359L2.78633 14.6809L4.07556 15.0026L4.60493 12.8807C4.95674 12.9763 5.29862 13.0645 5.63315 13.1476L5.10599 15.2595L6.39669 15.5812L6.93083 13.4406C9.13174 13.8571 10.7871 13.6891 11.483 11.6988C12.0444 10.096 11.4554 9.17147 10.2975 8.56821C11.1408 8.37301 11.776 7.81827 11.9455 6.67242H11.9458ZM8.99639 10.8077C8.62997 12.2788 6.32688 11.6701 5.27404 11.3918C5.17976 11.3669 5.09551 11.3447 5.02356 11.3268L5.73233 8.48546C5.82026 8.50741 5.92768 8.53151 6.04938 8.55882C7.13858 8.80324 9.37074 9.30413 8.99675 10.8077H8.99639ZM6.26825 7.24043C7.14673 7.47479 9.0616 7.98565 9.39518 6.6493C9.73622 5.28217 7.87421 4.87011 6.96482 4.66887C6.86259 4.64624 6.7724 4.62628 6.69873 4.60793L6.05613 7.18492C6.11694 7.20006 6.1883 7.2191 6.26825 7.24043Z" fill="#CAFF33"/>
</svg>
