<svg width="78" height="78" viewBox="0 0 78 78" fill="none" xmlns="http://www.w3.org/2000/svg">
<rect width="78" height="78" rx="39" fill="url(#paint0_linear_21_125)" fill-opacity="0.05"/>
<rect x="10" y="10" width="58" height="58" rx="29" fill="url(#paint1_linear_21_125)" fill-opacity="0.1"/>
<rect x="10.5" y="10.5" width="57" height="57" rx="28.5" stroke="url(#paint2_linear_21_125)" stroke-opacity="0.2"/>
<path d="M38.4801 26.97C38.795 26.76 39.2052 26.76 39.5201 26.97L50.7701 34.47C51.2009 34.7572 51.3174 35.3392 51.0301 35.77C50.7429 36.2008 50.1609 36.3173 49.7301 36.03L39.0001 28.8767L28.2701 36.03C27.8393 36.3173 27.2573 36.2008 26.9701 35.77C26.6828 35.3392 26.7993 34.7572 27.2301 34.47L38.4801 26.97Z" fill="#CAFF33"/>
<path fill-rule="evenodd" clip-rule="evenodd" d="M49.3125 36.9156V49.3125H50.25C50.7678 49.3125 51.1875 49.7322 51.1875 50.25C51.1875 50.7678 50.7678 51.1875 50.25 51.1875H27.75C27.2322 51.1875 26.8125 50.7678 26.8125 50.25C26.8125 49.7322 27.2322 49.3125 27.75 49.3125H28.6875V36.9156C28.6875 36.454 29.0236 36.061 29.4797 35.9895C32.5822 35.5026 35.7619 35.25 39 35.25C42.2381 35.25 45.4178 35.5026 48.5203 35.9895C48.9764 36.061 49.3125 36.454 49.3125 36.9156ZM39.9375 39.9375C39.9375 39.4197 39.5178 39 39 39C38.4822 39 38.0625 39.4197 38.0625 39.9375V48.375C38.0625 48.8928 38.4822 49.3125 39 49.3125C39.5178 49.3125 39.9375 48.8928 39.9375 48.375V39.9375ZM43.6875 39C44.2053 39 44.625 39.4197 44.625 39.9375V48.375C44.625 48.8928 44.2053 49.3125 43.6875 49.3125C43.1697 49.3125 42.75 48.8928 42.75 48.375V39.9375C42.75 39.4197 43.1697 39 43.6875 39ZM35.25 39.9375C35.25 39.4197 34.8303 39 34.3125 39C33.7947 39 33.375 39.4197 33.375 39.9375V48.375C33.375 48.8928 33.7947 49.3125 34.3125 49.3125C34.8303 49.3125 35.25 48.8928 35.25 48.375V39.9375Z" fill="#CAFF33"/>
<path d="M39 33.8438C39.7767 33.8438 40.4062 33.2142 40.4062 32.4375C40.4062 31.6608 39.7767 31.0312 39 31.0312C38.2233 31.0312 37.5938 31.6608 37.5938 32.4375C37.5938 33.2142 38.2233 33.8438 39 33.8438Z" fill="#CAFF33"/>
<defs>
<linearGradient id="paint0_linear_21_125" x1="39" y1="0" x2="39" y2="78" gradientUnits="userSpaceOnUse">
<stop stop-color="#CAFF33"/>
<stop offset="1" stop-color="#CAFF33" stop-opacity="0"/>
</linearGradient>
<linearGradient id="paint1_linear_21_125" x1="39" y1="-28.4054" x2="39" y2="159.703" gradientUnits="userSpaceOnUse">
<stop stop-color="#CAFF33"/>
<stop offset="0.467671" stop-color="#CAFF33" stop-opacity="0"/>
</linearGradient>
<linearGradient id="paint2_linear_21_125" x1="39" y1="-90.7162" x2="39" y2="120.514" gradientUnits="userSpaceOnUse">
<stop stop-color="#CAFF33"/>
<stop offset="0.716291" stop-color="#CAFF33" stop-opacity="0"/>
</linearGradient>
</defs>
</svg>
