<svg width="78" height="78" viewBox="0 0 78 78" fill="none" xmlns="http://www.w3.org/2000/svg">
<rect width="78" height="78" rx="39" fill="url(#paint0_linear_21_75)" fill-opacity="0.05"/>
<rect x="10" y="10" width="58" height="58" rx="29" fill="url(#paint1_linear_21_75)" fill-opacity="0.1"/>
<rect x="10.5" y="10.5" width="57" height="57" rx="28.5" stroke="url(#paint2_linear_21_75)" stroke-opacity="0.2"/>
<g clip-path="url(#clip0_21_75)">
<path d="M41.6923 30.8782C41.7253 30.9166 41.7308 30.9276 41.7363 30.9276C42.2807 31.0046 42.5337 31.4115 42.8251 31.8184C43.1605 32.2804 43.5619 32.7038 43.9908 33.0887C45.1181 34.106 45.8109 35.3377 46.0419 36.8389C46.4433 39.4673 44.9366 42.1672 42.4622 43.2175C38.7065 44.8122 34.5109 42.3872 34.0765 38.3291C33.8455 36.168 34.6373 34.3809 36.287 32.9732C36.8204 32.5168 37.2658 31.9889 37.6342 31.3895C37.7002 31.2796 37.8212 31.1916 37.9366 31.1366C38.1236 31.0486 38.3326 30.9991 38.569 30.9166C38.492 30.8232 38.437 30.7572 38.3765 30.6912C38.0081 30.3118 37.6397 29.9214 37.2658 29.5529C37.1338 29.421 37.0733 29.2835 37.0788 29.0965C37.0898 28.3157 37.0843 27.5404 37.0843 26.7595C37.0843 26.4461 37.4692 25.9457 37.7827 25.8852C38.1401 25.8137 38.5085 25.7752 38.8659 25.7038C38.9704 25.6818 39.0859 25.6158 39.1464 25.5333C39.6688 24.8294 40.5871 24.8239 41.104 25.5223C41.1754 25.6158 41.3129 25.6873 41.4284 25.7148C41.7583 25.7862 42.0937 25.8247 42.4292 25.8852C42.7646 25.9512 43.122 26.3856 43.122 26.7265C43.122 27.5129 43.1165 28.3047 43.1275 29.091C43.133 29.2945 43.067 29.432 42.9296 29.5749C42.5117 29.9983 42.1102 30.4327 41.6923 30.8782ZM39.3828 33.941C39.3663 34.007 39.3498 34.0455 39.3553 34.0785C39.4268 34.4469 39.2564 34.6064 38.9154 34.7438C38.2666 35.0133 37.9751 35.5576 37.9916 36.256C38.0081 36.9488 38.382 37.3778 39.0089 37.6032C39.2838 37.7022 39.5698 37.7737 39.8447 37.8672C40.0977 37.9496 40.3506 38.0321 40.5926 38.1311C40.796 38.2136 40.9115 38.373 40.8895 38.604C40.8675 38.8404 40.719 38.9779 40.5101 39.0164C40.2956 39.0604 40.0647 39.0989 39.8612 39.0494C39.4653 38.9559 39.0859 38.7965 38.668 38.6535C38.481 38.9009 38.2666 39.1814 38.0081 39.5278C38.3985 39.6983 38.734 39.8742 39.0914 39.9952C39.2948 40.0612 39.3773 40.1492 39.3498 40.3581C39.3333 40.5066 39.3443 40.6606 39.3443 40.831C39.6578 40.831 39.9217 40.831 40.1857 40.831C40.5651 40.831 40.5816 40.831 40.5596 40.4406C40.5486 40.1987 40.6036 40.0667 40.8675 40.0337C41.005 40.0172 41.1424 39.9402 41.2689 39.8687C41.8518 39.5498 42.0937 39.0384 42.0827 38.3895C42.0717 37.7737 41.7638 37.3503 41.2139 37.1028C40.9665 36.9928 40.7025 36.9104 40.4386 36.8224C40.1087 36.7124 39.7787 36.6134 39.4488 36.4924C39.2454 36.4155 39.1629 36.2505 39.1794 36.0305C39.1959 35.8216 39.3223 35.6786 39.5148 35.6456C39.7457 35.6071 39.9932 35.5851 40.2186 35.6236C40.4936 35.6731 40.752 35.7996 41.0435 35.8986C41.2249 35.6181 41.4119 35.3212 41.6318 34.9748C41.3789 34.8593 41.1644 34.7163 40.9335 34.6778C40.6091 34.6228 40.5101 34.4744 40.5486 34.1664C40.5596 34.095 40.4606 33.952 40.4001 33.9465C40.0702 33.93 39.7238 33.941 39.3828 33.941Z" fill="#CAFF33"/>
<path d="M39.6795 52.9889C38.5082 52.9889 37.3315 52.956 36.1602 52.9999C35.3739 53.0274 34.703 52.791 34.0707 52.3731C33.1744 51.7737 32.355 51.0919 31.6402 50.278C30.5844 49.0738 29.5176 47.8695 28.4619 46.6653C27.5985 45.6755 27.989 44.2128 29.2207 43.8114C29.3637 43.7619 29.5286 43.7454 29.6771 43.7454C30.6559 43.7399 31.6402 43.7344 32.619 43.7509C32.7564 43.7509 32.9214 43.8224 33.0204 43.9159C33.6912 44.5648 34.3511 45.2301 35.0055 45.8955C35.1374 46.0274 35.2584 46.0549 35.4454 46.0274C35.8413 45.967 36.2482 45.912 36.6496 45.912C38.5027 45.901 40.3503 45.9065 42.2034 45.9065C42.8358 45.9065 43.3032 46.2309 43.4681 46.7698C43.7211 47.5836 43.1272 48.3479 42.2199 48.3534C40.9937 48.3589 39.7619 48.3534 38.5357 48.3534C38.3158 48.3534 38.0958 48.3479 37.8758 48.3534C37.4799 48.3644 37.2215 48.6174 37.216 48.9748C37.216 49.3377 37.4744 49.6127 37.8648 49.6127C39.8169 49.6182 41.769 49.6182 43.7211 49.6127C44.117 49.6127 44.4029 49.3927 44.6779 49.1288C45.9536 47.9025 47.2293 46.6763 48.5106 45.4556C49.033 44.9552 49.7258 44.9332 50.2207 45.3786C50.7541 45.8625 50.7651 46.6433 50.2262 47.1877C49.6598 47.7651 49.0824 48.3094 48.5106 48.8648C47.2458 50.0911 45.9811 51.3118 44.7219 52.538C44.4139 52.835 44.073 52.9889 43.6386 52.9889C42.3189 52.9834 40.9992 52.9889 39.6795 52.9889Z" fill="#CAFF33"/>
<path d="M33.1358 29.751C33.6691 30.2844 34.2025 30.8177 34.7249 31.3401C34.4005 31.6646 34.0596 32.0055 33.7186 32.3409C33.2127 31.8185 32.6794 31.2687 32.168 30.7408C32.4704 30.4328 32.8113 30.0809 33.1358 29.751Z" fill="#CAFF33"/>
<path d="M47.0203 29.751C47.3448 30.0754 47.6802 30.4218 47.9936 30.7353C47.4712 31.2577 46.9269 31.802 46.399 32.3244C46.08 32.0055 45.7446 31.6591 45.4092 31.3236C45.9316 30.8122 46.4705 30.2844 47.0203 29.751Z" fill="#CAFF33"/>
<path d="M48.2851 38.4171C48.2851 37.9497 48.2796 37.5207 48.2906 37.0918C48.2906 37.0369 48.395 36.9379 48.45 36.9379C49.1209 36.9269 49.7862 36.9269 50.4571 36.9379C50.5121 36.9379 50.6166 37.0204 50.6166 37.0643C50.6276 37.5098 50.6221 37.9552 50.6221 38.4171C49.8357 38.4171 49.0769 38.4171 48.2851 38.4171Z" fill="#CAFF33"/>
<path d="M31.8546 38.4336C31.0958 38.4336 30.3864 38.4391 29.6716 38.4281C29.6166 38.4281 29.5286 38.3236 29.5231 38.2631C29.5121 37.8782 29.5066 37.4933 29.5231 37.1083C29.5231 37.0479 29.6331 36.9379 29.6936 36.9379C30.3534 36.9269 31.0133 36.9269 31.6731 36.9379C31.7336 36.9379 31.8436 37.0259 31.8436 37.0808C31.8601 37.5098 31.8546 37.9497 31.8546 38.4336Z" fill="#CAFF33"/>
</g>
<defs>
<linearGradient id="paint0_linear_21_75" x1="39" y1="0" x2="39" y2="78" gradientUnits="userSpaceOnUse">
<stop stop-color="#CAFF33"/>
<stop offset="1" stop-color="#CAFF33" stop-opacity="0"/>
</linearGradient>
<linearGradient id="paint1_linear_21_75" x1="39" y1="-28.4054" x2="39" y2="159.703" gradientUnits="userSpaceOnUse">
<stop stop-color="#CAFF33"/>
<stop offset="0.467671" stop-color="#CAFF33" stop-opacity="0"/>
</linearGradient>
<linearGradient id="paint2_linear_21_75" x1="39" y1="-90.7162" x2="39" y2="120.514" gradientUnits="userSpaceOnUse">
<stop stop-color="#CAFF33"/>
<stop offset="0.716291" stop-color="#CAFF33" stop-opacity="0"/>
</linearGradient>
<clipPath id="clip0_21_75">
<rect width="22.6277" height="28" fill="white" transform="translate(28 25)"/>
</clipPath>
</defs>
</svg>
