<svg width="78" height="78" viewBox="0 0 78 78" fill="none" xmlns="http://www.w3.org/2000/svg">
<rect width="78" height="78" rx="39" fill="url(#paint0_linear_21_118)" fill-opacity="0.05"/>
<rect x="10" y="10" width="58" height="58" rx="29" fill="url(#paint1_linear_21_118)" fill-opacity="0.1"/>
<rect x="10.5" y="10.5" width="57" height="57" rx="28.5" stroke="url(#paint2_linear_21_118)" stroke-opacity="0.2"/>
<g clip-path="url(#clip0_21_118)">
<path d="M48.6576 38.0185C48.6576 38.7663 48.6676 39.5093 48.6525 40.2571C48.6425 40.6606 48.7579 41.0148 48.9687 41.3494C49.5107 42.2251 50.2284 42.9582 50.9561 43.6815C51.2271 43.9521 51.5081 44.2079 51.7942 44.4588C51.9347 44.5818 51.9999 44.7098 51.9999 44.9016C51.9899 45.7233 51.9899 46.54 51.9949 47.3617C51.9999 48.0456 51.6988 48.5572 51.0715 48.8426C50.4291 49.1329 49.8269 49.0099 49.2999 48.5622C48.2109 47.6274 47.1269 46.6876 46.0429 45.7528C45.3051 45.1132 44.5724 44.4638 43.8196 43.8438C43.5537 43.6224 43.2375 43.4601 42.9314 43.2928C42.4797 43.0468 41.9929 42.9139 41.4659 42.9336C41.0845 42.9484 40.6931 42.9533 40.3116 42.9238C39.7546 42.8795 39.3581 42.5007 39.2828 41.9791C39.2126 41.5216 39.4886 41.0296 39.9503 40.8524C40.126 40.7836 40.3217 40.754 40.5124 40.754C41.9577 40.7442 43.4031 40.7491 44.8535 40.7491C45.3955 40.7491 45.5912 40.5572 45.5912 40.021C45.5912 38.9385 45.5862 37.8561 45.5912 36.7737C45.5962 36.3604 45.4507 36.0357 45.1345 35.7553C43.3128 34.1513 41.5011 32.5376 39.6843 30.9238C39.1975 30.4908 39.1423 29.8512 39.5488 29.3838C39.9503 28.9164 40.6077 28.8721 41.1247 29.2657C43.4483 31.0369 45.7669 32.8082 48.1005 34.5695C48.4869 34.8598 48.6676 35.2141 48.6626 35.6815C48.6525 36.4588 48.6576 37.2362 48.6576 38.0185Z" fill="#CAFF33"/>
<path d="M25.0048 46.2054C25.0048 45.7626 25.0098 45.3198 24.9998 44.877C24.9947 44.7048 25.065 44.5917 25.1804 44.4736C25.9382 43.711 26.686 42.9385 27.4288 42.1612C27.5843 41.9988 27.6998 41.8069 27.8353 41.6298C28.1916 41.1526 28.3572 40.631 28.3421 40.0209C28.312 38.6138 28.3472 37.2018 28.3271 35.7897C28.317 35.2337 28.5178 34.8401 28.9745 34.4957C31.2931 32.7639 33.5866 31.0025 35.8901 29.246C36.3719 28.877 37.0343 28.9361 37.4258 29.3789C37.8273 29.8315 37.7921 30.481 37.3254 30.9041C36.6178 31.5437 35.9001 32.1685 35.1875 32.8032C34.0583 33.802 32.9291 34.8057 31.7999 35.8045C31.534 36.0406 31.4035 36.326 31.4035 36.6704C31.4035 37.8168 31.3985 38.9631 31.4035 40.1144C31.4035 40.5375 31.6243 40.7442 32.0609 40.7442C33.5514 40.7491 35.0369 40.7442 36.5275 40.7491C37.2301 40.7491 37.7219 41.2313 37.7068 41.8807C37.6968 42.3776 37.3304 42.8254 36.8236 42.8992C36.5224 42.9435 36.2063 42.9631 35.9001 42.9336C34.8713 42.8352 34.0031 43.2042 33.2353 43.8045C32.4524 44.4145 31.7197 45.0935 30.9719 45.738C29.8728 46.6827 28.7788 47.6372 27.6747 48.5769C26.7814 49.3395 25.4615 49.005 25.0801 47.9176C25.0299 47.7799 25.0148 47.6273 25.0098 47.4847C24.9998 47.0615 25.0048 46.6335 25.0048 46.2054Z" fill="#CAFF33"/>
<path d="M39.2122 39.0369C39.2122 39.2731 39.2122 39.4945 39.2122 39.7356C38.7907 39.7356 38.3892 39.7356 37.9526 39.7356C37.9526 39.5437 37.9476 39.3567 37.9526 39.1698C37.9576 39.032 37.9175 38.973 37.7719 38.9385C37.3554 38.8401 36.9689 38.6728 36.6076 38.3875C36.8385 38.0874 37.0593 37.802 37.26 37.5363C37.6414 37.679 37.9877 37.8463 38.3541 37.9299C38.6201 37.989 38.9161 37.9496 39.1922 37.9053C39.403 37.8709 39.5385 37.7085 39.5535 37.4871C39.5736 37.2608 39.4531 37.1033 39.2524 37.0246C38.9111 36.8967 38.5548 36.7983 38.2085 36.6851C37.9576 36.6015 37.6966 36.5277 37.4507 36.4244C36.8736 36.1833 36.5675 35.7552 36.5524 35.1255C36.5373 34.4662 36.7883 33.9348 37.3905 33.6495C37.7819 33.4625 38.1182 33.3247 37.9225 32.7786C38.349 32.7786 38.7204 32.7737 39.0968 32.7885C39.137 32.7885 39.2072 32.9115 39.2072 32.9803C39.2323 33.3985 39.2323 33.3887 39.6288 33.5265C39.8596 33.6052 40.0805 33.7183 40.3314 33.8315C40.1206 34.1513 39.95 34.4318 39.7593 34.6974C39.7292 34.7368 39.6087 34.7319 39.5385 34.7122C39.2072 34.6286 38.886 34.5203 38.5548 34.4564C38.4243 34.4318 38.2738 34.4711 38.1383 34.5056C37.9375 34.5597 37.802 34.6925 37.787 34.909C37.7719 35.1206 37.8673 35.2829 38.063 35.3616C38.3189 35.465 38.5799 35.5437 38.8409 35.6273C39.1269 35.7208 39.423 35.7897 39.699 35.893C40.497 36.1981 40.8182 36.6802 40.778 37.4723C40.7379 38.2005 40.2812 38.7417 39.5284 38.9533C39.4381 38.9828 39.3427 39.0074 39.2122 39.0369Z" fill="#CAFF33"/>
</g>
<defs>
<linearGradient id="paint0_linear_21_118" x1="39" y1="0" x2="39" y2="78" gradientUnits="userSpaceOnUse">
<stop stop-color="#CAFF33"/>
<stop offset="1" stop-color="#CAFF33" stop-opacity="0"/>
</linearGradient>
<linearGradient id="paint1_linear_21_118" x1="39" y1="-28.4054" x2="39" y2="159.703" gradientUnits="userSpaceOnUse">
<stop stop-color="#CAFF33"/>
<stop offset="0.467671" stop-color="#CAFF33" stop-opacity="0"/>
</linearGradient>
<linearGradient id="paint2_linear_21_118" x1="39" y1="-90.7162" x2="39" y2="120.514" gradientUnits="userSpaceOnUse">
<stop stop-color="#CAFF33"/>
<stop offset="0.716291" stop-color="#CAFF33" stop-opacity="0"/>
</linearGradient>
<clipPath id="clip0_21_118">
<rect width="27" height="20" fill="white" transform="translate(25 29)"/>
</clipPath>
</defs>
</svg>
