<svg width="52" height="41" viewBox="0 0 52 41" fill="none" xmlns="http://www.w3.org/2000/svg">
<path d="M2.77735 18.5883L2.7764 18.5911C1.59498 22.0841 1.00049 25.4598 1.00049 28.7158V37.8238C1.00049 39.2045 2.11978 40.3238 3.50049 40.3238H14.7694C16.1501 40.3238 17.2694 39.2045 17.2694 37.8238L17.2694 28.6069L17.2693 28.6027C17.2345 24.4487 17.8968 20.6661 19.2485 17.2484C20.41 14.3556 21.8002 11.5615 23.4193 8.8658C24.1143 7.70866 23.8102 6.18631 22.6697 5.42635L16.643 1.41042C15.7279 0.80057 14.4984 0.849133 13.6652 1.60885C11.4942 3.58827 9.5102 5.92565 7.71183 8.61791L7.71114 8.61894C5.63778 11.7397 3.99299 15.0631 2.77735 18.5883ZM29.6569 18.5883L29.656 18.5911C28.4745 22.0841 27.8801 25.4598 27.8801 28.7158V37.8238C27.8801 39.2045 28.9993 40.3238 30.3801 40.3238H41.6489C43.0296 40.3238 44.1489 39.2045 44.1489 37.8238L44.1489 28.6069L44.1489 28.6027C44.114 24.4489 44.7763 20.6664 46.1279 17.2488C47.2895 14.3559 48.6797 11.5616 50.2988 8.8658C50.9938 7.70867 50.6898 6.18632 49.5493 5.42636L43.5226 1.41042C42.6074 0.80057 41.378 0.849133 40.5447 1.60885C38.3738 3.58827 36.3898 5.92565 34.5914 8.61791L34.5907 8.61894C32.5173 11.7397 30.8726 15.0631 29.6569 18.5883Z" fill="url(#paint0_linear_11_89097)" stroke="#CAFF33"/>
<defs>
<linearGradient id="paint0_linear_11_89097" x1="26.2064" y1="1.00024" x2="26.2064" y2="39.8238" gradientUnits="userSpaceOnUse">
<stop stop-color="#CAFF33"/>
<stop offset="1" stop-color="#191919"/>
</linearGradient>
</defs>
</svg>
