<svg width="98" height="98" viewBox="0 0 98 98" fill="none" xmlns="http://www.w3.org/2000/svg">
<rect width="98" height="98" rx="49" fill="url(#paint0_linear_53_591)" fill-opacity="0.05"/>
<rect x="12" y="12" width="74" height="74" rx="37" fill="url(#paint1_linear_53_591)" fill-opacity="0.1"/>
<rect x="12.5" y="12.5" width="73" height="73" rx="36.5" stroke="url(#paint2_linear_53_591)" stroke-opacity="0.2"/>
<path fill-rule="evenodd" clip-rule="evenodd" d="M35.1875 35.1875C34.6007 35.1875 34.125 35.6632 34.125 36.25C34.125 36.8368 34.6007 37.3125 35.1875 37.3125H36.25V52.1875C36.25 54.5347 38.1528 56.4375 40.5 56.4375H42.2134L40.5545 61.414C40.369 61.9707 40.6698 62.5724 41.2265 62.758C41.7832 62.9435 42.3849 62.6427 42.5705 62.086L43.0366 60.6875H54.9634L55.4295 62.086C55.6151 62.6427 56.2168 62.9435 56.7735 62.758C57.3302 62.5724 57.631 61.9707 57.4455 61.414L55.7866 56.4375H57.5C59.8472 56.4375 61.75 54.5347 61.75 52.1875V37.3125H62.8125C63.3993 37.3125 63.875 36.8368 63.875 36.25C63.875 35.6632 63.3993 35.1875 62.8125 35.1875H35.1875ZM43.745 58.5625L44.4533 56.4375H53.5467L54.255 58.5625H43.745ZM54.3125 41.5625C54.3125 40.9757 53.8368 40.5 53.25 40.5C52.6632 40.5 52.1875 40.9757 52.1875 41.5625V50.0625C52.1875 50.6493 52.6632 51.125 53.25 51.125C53.8368 51.125 54.3125 50.6493 54.3125 50.0625V41.5625ZM50.0625 44.75C50.0625 44.1632 49.5868 43.6875 49 43.6875C48.4132 43.6875 47.9375 44.1632 47.9375 44.75V50.0625C47.9375 50.6493 48.4132 51.125 49 51.125C49.5868 51.125 50.0625 50.6493 50.0625 50.0625V44.75ZM45.8125 47.9375C45.8125 47.3507 45.3368 46.875 44.75 46.875C44.1632 46.875 43.6875 47.3507 43.6875 47.9375V50.0625C43.6875 50.6493 44.1632 51.125 44.75 51.125C45.3368 51.125 45.8125 50.6493 45.8125 50.0625V47.9375Z" fill="#CAFF33"/>
<defs>
<linearGradient id="paint0_linear_53_591" x1="49" y1="0" x2="49" y2="98" gradientUnits="userSpaceOnUse">
<stop stop-color="#CAFF33"/>
<stop offset="1" stop-color="#CAFF33" stop-opacity="0"/>
</linearGradient>
<linearGradient id="paint1_linear_53_591" x1="49" y1="-37" x2="49" y2="203" gradientUnits="userSpaceOnUse">
<stop stop-color="#CAFF33"/>
<stop offset="0.467671" stop-color="#CAFF33" stop-opacity="0"/>
</linearGradient>
<linearGradient id="paint2_linear_53_591" x1="49" y1="-116.5" x2="49" y2="153" gradientUnits="userSpaceOnUse">
<stop stop-color="#CAFF33"/>
<stop offset="0.716291" stop-color="#CAFF33" stop-opacity="0"/>
</linearGradient>
</defs>
</svg>
