<svg width="11" height="18" viewBox="0 0 11 18" fill="none" xmlns="http://www.w3.org/2000/svg">
<path fill-rule="evenodd" clip-rule="evenodd" d="M3.96828 0.683594C4.92063 0.683594 5.86949 0.683594 6.82184 0.683594C6.76582 1.32783 6.7063 1.97558 6.65378 2.61982C7.7637 2.70035 8.8456 3.05748 9.81896 3.58618C9.39881 4.64357 8.97515 5.70096 8.55149 6.75836C7.73218 6.0616 6.65378 5.67646 5.57888 5.69046C5.30928 5.69746 5.02918 5.74998 4.80509 5.90404C4.65804 6.00558 4.5495 6.16314 4.51798 6.3382C4.49348 6.47825 4.50048 6.63581 4.57751 6.76186C4.66504 6.90191 4.8191 6.98594 4.97315 7.03846C5.28827 7.15051 5.6279 7.15751 5.95702 7.19252C6.73081 7.28706 7.5081 7.42011 8.23987 7.69671C8.80709 7.91379 9.34979 8.23941 9.73843 8.71559C10.1061 9.15325 10.3196 9.70646 10.4002 10.2737C10.4947 10.9284 10.4667 11.6077 10.2636 12.2449C10.1061 12.7561 9.83647 13.2323 9.48634 13.6349C8.76157 14.4752 7.69717 14.9794 6.60476 15.109C6.63978 15.7987 6.68179 16.485 6.72031 17.1747C5.81697 17.1747 4.91713 17.1747 4.0173 17.1747C4.05231 16.492 4.09783 15.8092 4.12934 15.1265C3.40457 15.102 2.6868 14.9409 2.01105 14.6853C1.3563 14.4367 0.733072 14.1076 0.151855 13.7225C0.579015 12.623 1.00617 11.5236 1.43683 10.4207C1.92352 10.8304 2.44171 11.212 3.00892 11.5026C3.61815 11.8142 4.2939 12.0138 4.98016 12.0208C5.30578 12.0243 5.6419 12.0068 5.95002 11.8948C6.13909 11.8247 6.32466 11.7022 6.40869 11.5096C6.49622 11.3066 6.48922 11.051 6.35617 10.8689C6.26164 10.7463 6.12859 10.6623 5.98853 10.6028C5.79946 10.5258 5.60339 10.4837 5.40381 10.4522C4.66854 10.3332 3.92976 10.2352 3.219 10.0041C2.64829 9.8185 2.09158 9.5594 1.63641 9.16026C1.3493 8.91166 1.11121 8.60705 0.943151 8.26392C0.691057 7.75273 0.596521 7.17501 0.603524 6.6078C0.603524 5.97407 0.733072 5.32983 1.04819 4.77312C1.32129 4.27593 1.73795 3.86978 2.20712 3.55817C2.77433 3.18353 3.40807 2.92793 4.05231 2.72135C4.0243 2.0421 3.99629 1.36285 3.96828 0.683594Z" fill="#CAFF33"/>
</svg>
