<svg width="12" height="17" viewBox="0 0 12 17" fill="none" xmlns="http://www.w3.org/2000/svg">
<path d="M11.9504 15.8947L11.5524 14.0873C11.5298 13.981 11.4729 13.9014 11.3818 13.8486C11.2833 13.7954 11.1848 13.788 11.0864 13.8259L11.0294 13.8486L10.8928 13.8826C10.8321 13.8976 10.762 13.9148 10.6825 13.9337C10.6029 13.9526 10.5102 13.9714 10.404 13.9905C10.2982 14.0095 10.1859 14.0266 10.0687 14.0418C9.9513 14.0566 9.82456 14.0701 9.68803 14.0815C9.55145 14.0927 9.4152 14.0985 9.27866 14.0985C8.3161 14.0985 7.45014 13.839 6.68098 13.3198C5.91169 12.8005 5.34516 12.0976 4.98143 11.211H9.38075C9.46429 11.211 9.54006 11.1827 9.60803 11.1257C9.67648 11.069 9.71817 10.999 9.73302 10.9153L10.0059 9.64204C10.0287 9.52868 10.0059 9.42622 9.93785 9.3352C9.86207 9.24418 9.76711 9.19862 9.65359 9.19862H4.43584C4.4131 8.6833 4.4131 8.28544 4.43584 8.00496H9.98348C10.1883 8.00496 10.3094 7.90653 10.3473 7.70947L10.6201 6.41348C10.6427 6.3074 10.6166 6.20897 10.5405 6.11795C10.4726 6.027 10.3778 5.98133 10.2565 5.98133H4.93607C5.31502 5.13253 5.88338 4.46562 6.64136 3.98056C7.39925 3.49538 8.25566 3.25293 9.21057 3.25293C9.24099 3.2378 9.35268 3.24162 9.5458 3.26432C9.73903 3.28693 9.84913 3.29649 9.87553 3.29267C9.90169 3.28892 10.0006 3.30035 10.171 3.32671C10.3416 3.35323 10.4269 3.36653 10.4269 3.36653L10.6258 3.40627C10.6828 3.41773 10.7264 3.42705 10.7566 3.43474L10.8021 3.44604C10.9006 3.47651 10.9913 3.46695 11.075 3.41773C11.1584 3.36832 11.2115 3.29454 11.2343 3.19603L11.7232 1.38849C11.7458 1.28994 11.7343 1.199 11.6891 1.11566C11.6208 1.02455 11.5449 0.967735 11.4616 0.945078C10.7644 0.770795 10.0289 0.683594 9.25608 0.683594C7.55821 0.683594 6.04074 1.16878 4.70302 2.13874C3.36533 3.10879 2.44255 4.38973 1.93476 5.98121H0.820768C0.714614 5.98121 0.627532 6.01526 0.559284 6.08347C0.491235 6.1516 0.457031 6.2388 0.457031 6.34495V7.64095C0.457031 7.74702 0.491115 7.83422 0.559284 7.90227C0.627572 7.97056 0.714773 8.00452 0.820768 8.00452H1.58249C1.55959 8.36842 1.55597 8.76608 1.57102 9.19831H0.820768C0.722259 9.19831 0.637008 9.23426 0.565018 9.30625C0.493066 9.3782 0.457031 9.46349 0.457031 9.56188V10.8466C0.457031 10.9452 0.493066 11.0303 0.565018 11.1025C0.637048 11.1745 0.722259 11.2101 0.820768 11.2101H1.90079C2.37825 12.8851 3.2802 14.2172 4.6065 15.2062C5.93288 16.1955 7.48275 16.6898 9.25608 16.6898C9.40022 16.6898 9.54604 16.6863 9.69388 16.6784C9.842 16.6708 9.98005 16.6593 10.1089 16.6443C10.2377 16.6293 10.3647 16.6124 10.4898 16.5934C10.6148 16.5743 10.7285 16.5557 10.8307 16.5364C10.9331 16.5176 11.0297 16.4987 11.1206 16.4799C11.2116 16.4607 11.2931 16.4401 11.3652 16.4172C11.4371 16.3947 11.4975 16.3775 11.5469 16.3664C11.5963 16.3549 11.636 16.3414 11.6661 16.3266L11.7231 16.3151C11.8065 16.2849 11.871 16.2298 11.9164 16.1501C11.9619 16.071 11.973 15.9856 11.9504 15.8947Z" fill="#CAFF33"/>
</svg>
