<svg width="94" height="94" viewBox="0 0 94 94" fill="none" xmlns="http://www.w3.org/2000/svg">
<rect width="94" height="94" rx="47" fill="url(#paint0_linear_67_202)" fill-opacity="0.05"/>
<rect x="12" y="12" width="70" height="70" rx="35" fill="url(#paint1_linear_67_202)" fill-opacity="0.1"/>
<rect x="12.5" y="12.5" width="69" height="69" rx="34.5" stroke="url(#paint2_linear_67_202)" stroke-opacity="0.2"/>
<g clip-path="url(#clip0_67_202)">
<path d="M62 47C62 38.7157 55.2843 32 47 32C38.7157 32 32 38.7157 32 47C32 54.4868 37.4853 60.6925 44.6562 61.8178V51.3359H40.8477V47H44.6562V43.6953C44.6562 39.9359 46.8957 37.8594 50.322 37.8594C51.9626 37.8594 53.6797 38.1523 53.6797 38.1523V41.8438H51.7883C49.925 41.8438 49.3438 43.0001 49.3438 44.1875V47H53.5039L52.8389 51.3359H49.3438V61.8178C56.5147 60.6925 62 54.4868 62 47Z" fill="#CAFF33"/>
<path d="M52.8389 51.3359L53.5039 47H49.3438V44.1875C49.3438 43.0013 49.925 41.8438 51.7883 41.8438H53.6797V38.1523C53.6797 38.1523 51.9632 37.8594 50.322 37.8594C46.8957 37.8594 44.6562 39.9359 44.6562 43.6953V47H40.8477V51.3359H44.6562V61.8178C46.2093 62.0607 47.7907 62.0607 49.3438 61.8178V51.3359H52.8389Z" fill="#1C1C1C"/>
</g>
<defs>
<linearGradient id="paint0_linear_67_202" x1="47" y1="0" x2="47" y2="94" gradientUnits="userSpaceOnUse">
<stop stop-color="#CAFF33"/>
<stop offset="1" stop-color="#CAFF33" stop-opacity="0"/>
</linearGradient>
<linearGradient id="paint1_linear_67_202" x1="47" y1="-34.3514" x2="47" y2="192.676" gradientUnits="userSpaceOnUse">
<stop stop-color="#CAFF33"/>
<stop offset="0.467671" stop-color="#CAFF33" stop-opacity="0"/>
</linearGradient>
<linearGradient id="paint2_linear_67_202" x1="47" y1="-109.554" x2="47" y2="145.378" gradientUnits="userSpaceOnUse">
<stop stop-color="#CAFF33"/>
<stop offset="0.716291" stop-color="#CAFF33" stop-opacity="0"/>
</linearGradient>
<clipPath id="clip0_67_202">
<rect width="30" height="30" fill="white" transform="translate(32 32)"/>
</clipPath>
</defs>
</svg>
