<svg width="98" height="98" viewBox="0 0 98 98" fill="none" xmlns="http://www.w3.org/2000/svg">
<rect width="98" height="98" rx="49" fill="url(#paint0_linear_53_601)" fill-opacity="0.05"/>
<rect x="12" y="12" width="74" height="74" rx="37" fill="url(#paint1_linear_53_601)" fill-opacity="0.1"/>
<rect x="12.5" y="12.5" width="73" height="73" rx="36.5" stroke="url(#paint2_linear_53_601)" stroke-opacity="0.2"/>
<path d="M49 33.0625C42.5452 33.0625 37.3125 38.2952 37.3125 44.75C37.3125 49.0719 39.6589 52.8446 43.1423 54.8656C44.1134 55.4291 44.7215 56.2936 44.749 57.1636C44.7642 57.6435 45.0993 58.0536 45.5666 58.164C46.0644 58.2817 46.5716 58.3743 47.0869 58.4405C47.5454 58.4994 47.9378 58.1322 47.9378 57.67V51.0668C47.4854 51.0168 47.0422 50.9352 46.6104 50.824C46.0421 50.6778 45.7 50.0985 45.8463 49.5302C45.9926 48.9619 46.5718 48.6198 47.1401 48.7661C47.7334 48.9188 48.3565 49.0003 49.0003 49.0003C49.644 49.0003 50.2671 48.9188 50.8604 48.7661C51.4287 48.6198 52.008 48.9619 52.1542 49.5302C52.3005 50.0985 51.9584 50.6778 51.3901 50.824C50.9583 50.9352 50.5151 51.0168 50.0628 51.0668V57.6699C50.0628 58.1321 50.4552 58.4994 50.9136 58.4404C51.4287 58.3742 51.9358 58.2817 52.4334 58.164C52.9007 58.0536 53.2358 57.6435 53.251 57.1636C53.2785 56.2936 53.8866 55.4291 54.8577 54.8656C58.3411 52.8446 60.6875 49.0719 60.6875 44.75C60.6875 38.2952 55.4548 33.0625 49 33.0625Z" fill="#CAFF33"/>
<path fill-rule="evenodd" clip-rule="evenodd" d="M44.7686 60.1912C44.878 59.6147 45.434 59.2359 46.0105 59.3453C46.9781 59.5288 47.9773 59.625 49 59.625C50.0227 59.625 51.0219 59.5288 51.9895 59.3453C52.566 59.2359 53.122 59.6147 53.2314 60.1912C53.3407 60.7677 52.962 61.3237 52.3855 61.4331C51.2881 61.6413 50.1563 61.75 49 61.75C47.8438 61.75 46.7119 61.6413 45.6145 61.4331C45.038 61.3237 44.6593 60.7677 44.7686 60.1912Z" fill="#CAFF33"/>
<path fill-rule="evenodd" clip-rule="evenodd" d="M45.8183 63.654C45.8793 63.0703 46.4019 62.6467 46.9855 62.7078C47.6472 62.777 48.3193 62.8125 49 62.8125C49.6807 62.8125 50.3528 62.777 51.0145 62.7078C51.5981 62.6467 52.1207 63.0703 52.1817 63.654C52.2428 64.2376 51.8192 64.7602 51.2355 64.8212C50.5005 64.8981 49.7547 64.9375 49 64.9375C48.2453 64.9375 47.4995 64.8981 46.7645 64.8212C46.1808 64.7602 45.7572 64.2376 45.8183 63.654Z" fill="#CAFF33"/>
<defs>
<linearGradient id="paint0_linear_53_601" x1="49" y1="0" x2="49" y2="98" gradientUnits="userSpaceOnUse">
<stop stop-color="#CAFF33"/>
<stop offset="1" stop-color="#CAFF33" stop-opacity="0"/>
</linearGradient>
<linearGradient id="paint1_linear_53_601" x1="49" y1="-37" x2="49" y2="203" gradientUnits="userSpaceOnUse">
<stop stop-color="#CAFF33"/>
<stop offset="0.467671" stop-color="#CAFF33" stop-opacity="0"/>
</linearGradient>
<linearGradient id="paint2_linear_53_601" x1="49" y1="-116.5" x2="49" y2="153" gradientUnits="userSpaceOnUse">
<stop stop-color="#CAFF33"/>
<stop offset="0.716291" stop-color="#CAFF33" stop-opacity="0"/>
</linearGradient>
</defs>
</svg>
