<svg width="22" height="21" viewBox="0 0 22 21" fill="none" xmlns="http://www.w3.org/2000/svg">
<path fill-rule="evenodd" clip-rule="evenodd" d="M0.5 3C0.5 1.34315 1.84315 0 3.5 0H4.87163C5.732 0 6.48197 0.585557 6.69064 1.42025L7.79644 5.84343C7.97941 6.5753 7.70594 7.34555 7.10242 7.79818L5.8088 8.7684C5.67447 8.86915 5.64527 9.01668 5.683 9.11969C6.81851 12.2195 9.28051 14.6815 12.3803 15.817C12.4833 15.8547 12.6309 15.8255 12.7316 15.6912L13.7018 14.3976C14.1545 13.7941 14.9247 13.5206 15.6566 13.7036L20.0798 14.8094C20.9144 15.018 21.5 15.768 21.5 16.6284V18C21.5 19.6569 20.1569 21 18.5 21H16.25C7.55151 21 0.5 13.9485 0.5 5.25V3Z" fill="#CAFF33"/>
</svg>
