<svg width="98" height="98" viewBox="0 0 98 98" fill="none" xmlns="http://www.w3.org/2000/svg">
<rect width="98" height="98" rx="49" fill="url(#paint0_linear_53_623)" fill-opacity="0.05"/>
<rect x="12" y="12" width="74" height="74" rx="37" fill="url(#paint1_linear_53_623)" fill-opacity="0.1"/>
<rect x="12.5" y="12.5" width="73" height="73" rx="36.5" stroke="url(#paint2_linear_53_623)" stroke-opacity="0.2"/>
<path fill-rule="evenodd" clip-rule="evenodd" d="M42.625 39.4375C42.625 37.0903 44.5278 35.1875 46.875 35.1875H51.125C53.4722 35.1875 55.375 37.0903 55.375 39.4375V39.7279C56.696 39.8488 58.0063 40.0069 59.3049 40.2012C61.3648 40.5095 62.8125 42.3015 62.8125 44.3331V48.6301C62.8125 50.3459 61.7732 51.9626 60.0694 52.529C56.5885 53.6863 52.8663 54.3125 49.0001 54.3125C45.1337 54.3125 41.4115 53.6863 37.9305 52.529C36.2268 51.9626 35.1875 50.3458 35.1875 48.6301V44.3331C35.1875 42.3015 36.6352 40.5095 38.6951 40.2013C39.9937 40.0069 41.304 39.8488 42.625 39.7279V39.4375ZM53.25 39.4375V39.5662C51.8442 39.4808 50.4271 39.4375 49 39.4375C47.5729 39.4375 46.1558 39.4808 44.75 39.5662V39.4375C44.75 38.2639 45.7014 37.3125 46.875 37.3125H51.125C52.2986 37.3125 53.25 38.2639 53.25 39.4375ZM49 51.125C49.5868 51.125 50.0625 50.6493 50.0625 50.0625C50.0625 49.4757 49.5868 49 49 49C48.4132 49 47.9375 49.4757 47.9375 50.0625C47.9375 50.6493 48.4132 51.125 49 51.125Z" fill="#CAFF33"/>
<path d="M36.25 58.0666V54.1056C36.566 54.2789 36.903 54.4268 37.2601 54.5455C40.9546 55.7738 44.903 56.4375 49.0001 56.4375C53.097 56.4375 57.0454 55.7738 60.7398 54.5455C61.0969 54.4268 61.434 54.2789 61.75 54.1056V58.0666C61.75 60.1235 60.2664 61.9306 58.1756 62.2082C55.1732 62.6068 52.1103 62.8125 49 62.8125C45.8897 62.8125 42.8268 62.6068 39.8244 62.2082C37.7336 61.9306 36.25 60.1235 36.25 58.0666Z" fill="#CAFF33"/>
<defs>
<linearGradient id="paint0_linear_53_623" x1="49" y1="0" x2="49" y2="98" gradientUnits="userSpaceOnUse">
<stop stop-color="#CAFF33"/>
<stop offset="1" stop-color="#CAFF33" stop-opacity="0"/>
</linearGradient>
<linearGradient id="paint1_linear_53_623" x1="49" y1="-37" x2="49" y2="203" gradientUnits="userSpaceOnUse">
<stop stop-color="#CAFF33"/>
<stop offset="0.467671" stop-color="#CAFF33" stop-opacity="0"/>
</linearGradient>
<linearGradient id="paint2_linear_53_623" x1="49" y1="-116.5" x2="49" y2="153" gradientUnits="userSpaceOnUse">
<stop stop-color="#CAFF33"/>
<stop offset="0.716291" stop-color="#CAFF33" stop-opacity="0"/>
</linearGradient>
</defs>
</svg>
