<svg width="13" height="13" viewBox="0 0 13 13" fill="none" xmlns="http://www.w3.org/2000/svg">
<path fill-rule="evenodd" clip-rule="evenodd" d="M6.70357 0.601562C7.06271 0.601562 7.35384 0.892701 7.35384 1.25184V5.80378H11.9058C12.2649 5.80378 12.5561 6.09492 12.5561 6.45406C12.5561 6.81319 12.2649 7.10433 11.9058 7.10433H7.35384V11.6563C7.35384 12.0154 7.06271 12.3066 6.70357 12.3066C6.34443 12.3066 6.05329 12.0154 6.05329 11.6563V7.10433H1.50135C1.14221 7.10433 0.851074 6.81319 0.851074 6.45405C0.851074 6.09492 1.14221 5.80378 1.50135 5.80378L6.05329 5.80378V1.25184C6.05329 0.892701 6.34443 0.601562 6.70357 0.601562Z" fill="#1A1A1A"/>
</svg>
