<svg width="17" height="17" viewBox="0 0 17 17" fill="none" xmlns="http://www.w3.org/2000/svg">
<path fill-rule="evenodd" clip-rule="evenodd" d="M11.8756 0.320647C11.5823 0.636456 11.6006 1.1302 11.9164 1.42345L14.1018 3.45273L5.16427 3.45273C4.73331 3.45273 4.38394 3.8021 4.38394 4.23307C4.38394 4.66403 4.73331 5.0134 5.16427 5.0134L14.1018 5.0134L11.9164 7.04268C11.6006 7.33593 11.5823 7.82967 11.8756 8.14548C12.1688 8.46129 12.6625 8.47958 12.9784 8.18633L16.6199 4.80489C16.7789 4.65724 16.8693 4.45005 16.8693 4.23306C16.8693 4.01608 16.7789 3.80889 16.6199 3.66124L12.9784 0.279802C12.6625 -0.0134488 12.1688 0.00483793 11.8756 0.320647ZM5.21587 8.64419C4.92262 8.32838 4.42888 8.3101 4.11307 8.60335L0.471522 11.9848C0.312517 12.1324 0.222168 12.3396 0.222168 12.5566C0.222168 12.7736 0.312517 12.9808 0.471522 13.1284L4.11307 16.5099C4.42888 16.8031 4.92262 16.7848 5.21587 16.469C5.50913 16.1532 5.49084 15.6595 5.17503 15.3662L2.98965 13.3369H11.9272C12.3581 13.3369 12.7075 12.9876 12.7075 12.5566C12.7075 12.1256 12.3581 11.7763 11.9272 11.7763H2.98965L5.17503 9.74699C5.49084 9.45374 5.50913 8.96 5.21587 8.64419Z" fill="#1C1C1C"/>
</svg>
