<svg width="39" height="39" viewBox="0 0 39 39" fill="none" xmlns="http://www.w3.org/2000/svg">
<rect x="0.470703" y="0.320068" width="38.1496" height="38.1496" rx="19.0748" fill="#CAFF33"/>
<path fill-rule="evenodd" clip-rule="evenodd" d="M22.8756 11.3206C22.5823 11.6365 22.6006 12.1302 22.9164 12.4234L25.1018 14.4527L16.1643 14.4527C15.7333 14.4527 15.3839 14.8021 15.3839 15.2331C15.3839 15.664 15.7333 16.0134 16.1643 16.0134L25.1018 16.0134L22.9164 18.0427C22.6006 18.3359 22.5823 18.8297 22.8756 19.1455C23.1688 19.4613 23.6625 19.4796 23.9784 19.1863L27.6199 15.8049C27.7789 15.6572 27.8693 15.4501 27.8693 15.2331C27.8693 15.0161 27.7789 14.8089 27.6199 14.6612L23.9784 11.2798C23.6625 10.9866 23.1688 11.0048 22.8756 11.3206ZM16.2159 19.6442C15.9226 19.3284 15.4289 19.3101 15.1131 19.6033L11.4715 22.9848C11.3125 23.1324 11.2222 23.3396 11.2222 23.5566C11.2222 23.7736 11.3125 23.9808 11.4715 24.1284L15.1131 27.5099C15.4289 27.8031 15.9226 27.7848 16.2159 27.469C16.5091 27.1532 16.4908 26.6595 16.175 26.3662L13.9896 24.3369H22.9272C23.3581 24.3369 23.7075 23.9876 23.7075 23.5566C23.7075 23.1256 23.3581 22.7763 22.9272 22.7763H13.9896L16.175 20.747C16.4908 20.4537 16.5091 19.96 16.2159 19.6442Z" fill="#1C1C1C"/>
</svg>
